<?xml version="1.0" encoding="utf-8"?>
<!-- Generator: Adobe Illustrator 16.0.0, SVG Export Plug-In . SVG Version: 6.00 Build 0)  -->
<!DOCTYPE svg PUBLIC "-//W3C//DTD SVG 1.1//EN" "http://www.w3.org/Graphics/SVG/1.1/DTD/svg11.dtd">
<svg version="1.1" id="Layer_1" xmlns="http://www.w3.org/2000/svg" xmlns:xlink="http://www.w3.org/1999/xlink" x="0px" y="0px"
	 width="200px" height="100px" viewBox="0 0 200 100" enable-background="new 0 0 200 100" xml:space="preserve">
<g>
	<polygon fill-rule="evenodd" clip-rule="evenodd" fill="#040607" points="72.876,29.978 79.444,29.978 79.444,31.861
		75.222,31.861 75.222,34.846 79.288,34.846 79.288,36.73 75.222,36.73 75.222,41.912 72.876,41.912 72.876,29.978 	"/>
	<path fill-rule="evenodd" clip-rule="evenodd" fill="#040607" d="M83.354,35.945c0-2.042,0.938-4.241,3.284-4.241
		c2.345,0,3.44,2.199,3.44,4.241c0,2.198-0.938,4.396-3.44,4.396S83.354,38.144,83.354,35.945L83.354,35.945z M80.852,35.945
		c0,3.611,2.033,6.281,5.786,6.281s5.942-2.67,5.942-6.281c0-3.612-2.189-6.125-5.942-6.125S80.852,32.333,80.852,35.945
		L80.852,35.945z"/>
	<path fill-rule="evenodd" clip-rule="evenodd" fill="#040607" d="M96.958,31.861h0.782c1.095,0,2.502,0.157,2.502,1.57
		c0,1.571-1.407,1.728-2.502,1.728h-0.782V31.861L96.958,31.861z M94.457,41.912h2.502v-4.868h0.625c1.095,0,1.407,0.314,1.72,1.257
		l1.408,3.611h2.658l-1.877-4.554c-0.156-0.628-0.626-1.257-1.251-1.257v-0.156c1.563-0.157,2.502-1.257,2.502-2.67
		c0-3.455-3.127-3.298-5.629-3.298h-2.658V41.912L94.457,41.912z"/>
	<polygon fill-rule="evenodd" clip-rule="evenodd" fill="#040607" points="105.091,29.978 112.283,29.978 112.283,31.861
		107.592,31.861 107.592,34.846 111.814,34.846 111.814,36.73 107.592,36.73 107.592,40.028 112.283,40.028 112.283,41.912
		105.091,41.912 105.091,29.978 	"/>
	<path fill-rule="evenodd" clip-rule="evenodd" fill="#040607" d="M121.04,32.176c-0.625-0.314-1.563-0.472-2.346-0.472
		c-0.781,0-1.877,0.314-1.877,1.571c0,2.198,5.161,1.256,5.161,5.339c0,2.513-2.032,3.612-4.379,3.612
		c-1.407,0-1.876-0.157-3.127-0.472l0.156-2.198c0.938,0.472,1.877,0.785,2.815,0.785c0.938,0,2.032-0.471,2.032-1.57
		c0-2.355-5.161-1.413-5.161-5.34c0-2.669,2.033-3.611,4.223-3.611c0.938,0,1.877,0.157,2.815,0.313L121.04,32.176L121.04,32.176z"
		/>
	<polygon fill-rule="evenodd" clip-rule="evenodd" fill="#040607" points="126.357,31.861 122.917,31.861 122.917,29.978
		132.143,29.978 132.143,31.861 128.702,31.861 128.702,41.912 126.357,41.912 126.357,31.861 	"/>
	<path fill-rule="evenodd" clip-rule="evenodd" fill="#040607" d="M79.288,50.079c-0.782-0.314-1.72-0.629-2.502-0.629
		s-1.876,0.471-1.876,1.729c0,2.041,5.316,1.256,5.316,5.182c0,2.67-2.189,3.611-4.535,3.611c-1.251,0-1.877-0.156-3.128-0.471
		l0.313-2.041c0.782,0.314,1.72,0.629,2.658,0.629s2.189-0.473,2.189-1.572c0-2.197-5.316-1.256-5.316-5.182
		c0-2.67,2.033-3.769,4.222-3.769c0.938,0,1.876,0.156,2.815,0.471L79.288,50.079L79.288,50.079z"/>
	<polygon fill-rule="evenodd" clip-rule="evenodd" fill="#040607" points="84.448,49.765 81.008,49.765 81.008,47.88 90.391,47.88
		90.391,49.765 86.95,49.765 86.95,59.815 84.448,59.815 84.448,49.765 	"/>
	<polygon fill-rule="evenodd" clip-rule="evenodd" fill="#040607" points="91.798,47.88 98.835,47.88 98.835,49.765 94.3,49.765
		94.3,52.591 98.522,52.591 98.522,54.634 94.3,54.634 94.3,57.931 98.991,57.931 98.991,59.815 91.798,59.815 91.798,47.88 	"/>
	<polygon fill-rule="evenodd" clip-rule="evenodd" fill="#040607" points="100.086,47.88 102.744,47.88 104.934,57.46
		104.934,57.46 106.967,47.88 110.25,47.88 112.283,57.46 112.44,57.46 114.629,47.88 116.975,47.88 113.847,59.815 110.72,59.815
		108.53,50.235 108.53,50.235 106.498,59.815 103.37,59.815 100.086,47.88 	"/>
	<path fill-rule="evenodd" clip-rule="evenodd" fill="#040607" d="M124.325,55.104h-3.44l1.72-4.869l0,0L124.325,55.104
		L124.325,55.104z M116.662,59.815h2.502l0.938-2.826h4.848l1.094,2.826h2.658l-4.69-11.936h-2.658L116.662,59.815L116.662,59.815z"
		/>
	<path fill-rule="evenodd" clip-rule="evenodd" fill="#040607" d="M132.456,49.765h0.782c1.095,0,2.502,0,2.502,1.57
		c0,1.414-1.407,1.57-2.502,1.57h-0.782V49.765L132.456,49.765z M129.954,59.815h2.502V54.79h0.782c0.938,0,1.25,0.314,1.563,1.256
		l1.563,3.77h2.658l-2.032-4.711c-0.156-0.471-0.626-1.1-1.251-1.256l0,0c1.563-0.158,2.502-1.414,2.502-2.828
		c0-3.298-3.128-3.141-5.63-3.141h-2.658V59.815L129.954,59.815z"/>
	<path fill-rule="evenodd" clip-rule="evenodd" fill="#040607" d="M143.089,49.765h1.408c1.876,0,3.909,1.414,3.909,4.084
		c0,2.512-2.033,4.082-3.909,4.082h-1.408V49.765L143.089,49.765z M140.744,59.815h3.283c3.598,0,6.881-1.256,6.881-5.967
		c0-4.869-3.283-5.969-6.881-5.969h-3.283V59.815L140.744,59.815z"/>
	<path fill-rule="evenodd" clip-rule="evenodd" fill="#040607" d="M159.51,50.079c-0.783-0.314-1.565-0.629-2.503-0.629
		c-0.781,0-1.876,0.471-1.876,1.729c0,2.041,5.316,1.256,5.316,5.182c0,2.67-2.189,3.611-4.535,3.611
		c-1.251,0-1.876-0.156-3.127-0.471l0.313-2.041c0.781,0.314,1.72,0.629,2.658,0.629s2.188-0.473,2.188-1.572
		c0-2.197-5.315-1.256-5.315-5.182c0-2.67,2.032-3.769,4.222-3.769c1.094,0,2.032,0.156,2.815,0.471L159.51,50.079L159.51,50.079z"
		/>
	<polygon fill-rule="evenodd" clip-rule="evenodd" fill="#040607" points="162.637,47.88 164.982,47.88 164.982,52.591
		169.829,52.591 169.829,47.88 172.176,47.88 172.176,59.815 169.829,59.815 169.829,54.634 164.982,54.634 164.982,59.815
		162.637,59.815 162.637,47.88 	"/>
	<polygon fill-rule="evenodd" clip-rule="evenodd" fill="#040607" points="174.678,47.88 177.18,47.88 177.18,59.815
		174.678,59.815 174.678,47.88 	"/>
	<path fill-rule="evenodd" clip-rule="evenodd" fill="#040607" d="M181.871,49.765h0.938c1.095,0,2.188,0.471,2.188,1.885
		c0,1.256-1.094,1.727-2.188,1.727h-0.938V49.765L181.871,49.765z M179.525,59.815h2.346v-4.555h1.095
		c2.502,0,4.534-0.941,4.534-3.77c0-2.982-2.346-3.611-5.004-3.611h-2.971V59.815L179.525,59.815z"/>
	<path fill-rule="evenodd" clip-rule="evenodd" fill="#040607" d="M81.477,77.405c-0.782,0.313-1.72,0.471-2.658,0.471
		c-3.909,0-6.568-1.885-6.568-5.969c0-4.24,2.502-6.438,6.568-6.438c0.782,0,1.876,0.156,2.658,0.471l-0.156,2.041
		c-0.938-0.471-1.72-0.627-2.659-0.627c-2.346,0-3.91,1.883-3.91,4.396c0,2.355,1.408,4.24,4.066,4.24
		c0.938,0,2.033-0.156,2.658-0.471V77.405L81.477,77.405z"/>
	<path fill-rule="evenodd" clip-rule="evenodd" fill="#040607" d="M85.23,71.593c0-2.041,0.938-4.238,3.284-4.238
		s3.44,2.197,3.44,4.238c0,2.199-0.938,4.398-3.44,4.398C86.168,75.991,85.23,73.792,85.23,71.593L85.23,71.593z M82.728,71.593
		c0,3.77,2.033,6.283,5.786,6.283c3.753,0,5.942-2.67,5.942-6.283c0-3.611-2.189-6.123-5.942-6.123
		C84.761,65.47,82.728,67.981,82.728,71.593L82.728,71.593z"/>
	<path fill-rule="evenodd" clip-rule="evenodd" fill="#040607" d="M96.49,65.626h2.345v6.91c0,2.041,0.782,3.455,2.502,3.455
		c1.877,0,2.502-1.414,2.502-3.455v-6.91h2.502v7.695c0,3.141-1.877,4.555-5.004,4.555c-2.971,0-4.847-1.414-4.847-4.555V65.626
		L96.49,65.626z"/>
	<polygon fill-rule="evenodd" clip-rule="evenodd" fill="#040607" points="108.843,65.626 111.814,65.626 116.349,74.577
		116.349,74.577 116.349,65.626 118.694,65.626 118.694,77.718 115.724,77.718 111.188,68.61 111.188,68.61 111.188,77.718
		108.843,77.718 108.843,65.626 	"/>
	<path fill-rule="evenodd" clip-rule="evenodd" fill="#040607" d="M129.954,77.405c-0.782,0.313-1.721,0.471-2.658,0.471
		c-3.909,0-6.568-1.885-6.568-5.969c0-4.24,2.502-6.438,6.568-6.438c0.781,0,1.876,0.156,2.658,0.471l-0.156,2.041
		c-0.938-0.471-1.721-0.627-2.502-0.627c-2.503,0-4.066,1.883-4.066,4.396c0,2.355,1.563,4.24,4.066,4.24
		c0.938,0,2.033-0.156,2.658-0.471V77.405L129.954,77.405z"/>
	<polygon fill-rule="evenodd" clip-rule="evenodd" fill="#040607" points="131.518,65.626 134.02,65.626 134.02,77.718
		131.518,77.718 131.518,65.626 	"/>
	<polygon fill-rule="evenodd" clip-rule="evenodd" fill="#040607" points="136.521,65.626 138.867,65.626 138.867,75.835
		143.559,75.835 143.559,77.718 136.521,77.718 136.521,65.626 	"/>
	<path fill-rule="evenodd" clip-rule="evenodd" fill="#040607" d="M58.49,28.563c1.72,0,3.284-1.413,3.284-3.298
		s-1.564-3.298-3.284-3.298c-1.876,0-3.44,1.413-3.44,3.298S56.613,28.563,58.49,28.563L58.49,28.563z M58.49,27.936
		c-1.563,0-2.814-1.1-2.814-2.67c0-1.413,1.251-2.67,2.814-2.67c1.407,0,2.658,1.257,2.658,2.67
		C61.148,26.836,59.897,27.936,58.49,27.936L58.49,27.936z M59.428,25.894c-0.156,0.472-0.469,0.629-0.782,0.629
		c-0.782,0-1.094-0.629-1.094-1.257s0.313-1.256,0.938-1.256c0.469,0,0.782,0.156,0.938,0.628h0.626
		c0-0.785-0.626-1.257-1.564-1.257c-1.095,0-1.72,0.785-1.72,1.885s0.625,1.885,1.876,1.885c0.625,0,1.408-0.471,1.408-1.257H59.428
		L59.428,25.894z"/>
	<path fill-rule="evenodd" clip-rule="evenodd" fill="#040607" d="M27.214,72.692c1.876,0,2.659,0,2.971,1.729h0.469
		c0-1.414,0-2.828,0.157-4.24h-0.469c-0.469,1.412-1.408,1.57-2.971,1.57h-1.564v-4.24h1.407c2.033,0,3.597,0,3.597,2.199h0.625
		l0.469-2.984H20.803v0.471c2.189,0.314,2.502,0.158,2.502,3.141v3.77c0,2.984-0.313,2.826-2.502,3.141v0.471h7.975v-0.471
		c-3.127-0.156-2.971-0.941-2.971-3.141v-1.414H27.214L27.214,72.692z"/>
	<path fill-rule="evenodd" clip-rule="evenodd" fill="#040607" d="M41.914,67.196c-0.938-0.471-2.033-0.627-3.127-0.627
		c-2.346,0-4.691,1.098-4.691,3.297c0,3.141,6.255,2.984,6.255,5.654c0,1.1-0.938,1.727-2.189,1.727
		c-2.189,0-3.596-1.727-4.222-3.297h-0.625l0.625,3.297c1.095,0.471,2.502,0.785,3.753,0.785c2.502,0,5.004-0.941,5.004-3.297
		c0-3.455-6.099-3.143-6.099-5.811c0-0.943,0.782-1.729,1.877-1.729c2.033,0,2.345,1.57,2.814,2.826h0.469L41.914,67.196
		L41.914,67.196z"/>
	<path fill-rule="evenodd" clip-rule="evenodd" fill="#040607" d="M57.083,67.354c-1.407-0.629-2.971-0.785-4.535-0.785
		c-4.065,0-7.975,2.041-7.975,5.809c0,3.77,3.753,5.654,7.819,5.654c1.407,0,2.815-0.314,4.222-0.785l1.251-3.297l-0.625-0.158
		c-0.938,1.729-2.189,3.455-4.691,3.455c-3.127,0-4.847-2.826-4.847-5.182s1.563-4.869,4.691-4.869c2.346,0,3.597,1.414,4.066,3.299
		h0.625V67.354L57.083,67.354z"/>
	<path fill-rule="evenodd" clip-rule="evenodd" fill="#040607" d="M45.979,56.36c-0.156,4.555,0.625,6.596-1.876,6.439
		c-11.416-0.473-10.008,2.041-10.165-7.381l-5.316,0.785c-2.033,0.156-3.44-3.613,0.156-3.928c9.54-0.941,9.227-3.14,9.07,6.598
		h4.222v-6.598c0-1.098,1.251-1.883,2.189-1.883c1.876,0,1.72,3.141,5.786,3.141c2.658-0.158,4.535-2.199,4.535-4.869
		c0-5.339-3.91-3.298-3.91-6.124c0-0.629,0.313-1.1,0.469-1.571c0.938-2.355,0.313-5.339-1.72-6.909
		c-1.251-1.1-3.597-1.257-3.753-2.513c-0.157-2.356-0.625-3.612-3.127-5.025c-1.72-0.942-4.379-0.786-6.099,0.313
		C30.499,30.448,25.963,48.352,24.4,55.731c-0.313,1.57-0.469,3.928-2.346,3.928c-0.939,0-1.407-0.629-2.033-1.258
		c-2.189-2.355-3.753-3.926-5.629-6.125c-0.782-0.785-1.72-1.57-1.876-2.826c-0.157-0.941,0.938-1.884,2.033-1.884
		c1.094,0,1.563,0.942,3.283,2.669c1.251,1.57,1.408,1.729,3.128,3.455c0.313-1.1,0.469-2.041,0.782-2.984
		c1.251-5.024,2.502-10.05,4.535-14.918c2.189-5.654,5.787-13.82,13.292-13.82c2.502,0,4.848,0.942,6.881,2.67
		c1.251,1.099,2.033,2.355,2.658,4.083c0,0.157,0,0.157,0.157,0.785c0.156,0.157,0.313,0.157,0.625,0.314s0.782,0.313,1.095,0.628
		c2.814,1.885,4.535,4.397,4.378,8.01c0,2.198-0.156,2.198-0.313,3.141c0.157,0.156,1.251,0.942,1.72,1.57
		c1.251,1.57,1.72,3.455,1.72,5.496c0,4.711-3.753,8.637-8.601,8.637C48.482,57.302,47.231,57.146,45.979,56.36L45.979,56.36z"/>
</g>
</svg>
