<?xml version="1.0" encoding="utf-8"?>
<!-- Generator: Adobe Illustrator 19.1.0, SVG Export Plug-In . SVG Version: 6.00 Build 0)  -->
<svg version="1.1" id="Layer_1" xmlns="http://www.w3.org/2000/svg" xmlns:xlink="http://www.w3.org/1999/xlink" x="0px" y="0px"
	 viewBox="0 51 200 100" style="enable-background:new 0 51 200 100;" xml:space="preserve">
<style type="text/css">
	.st0{fill:none;}
</style>
<g>
	<polygon class="st0" points="8.2,98.9 5.8,98.5 8.5,97.1 8.6,96.2 4.9,95.6 4.8,96.4 7.2,96.9 4.5,98.2 4.3,99.1 8,99.7 	"/>
	<polygon class="st0" points="7.9,104.6 7.3,104.7 7.6,107.1 6.6,107.3 6.3,105.1 5.7,105.2 6,107.4 5.1,107.5 4.8,105.1 4.2,105.2
		4.6,108.4 8.3,107.9 	"/>
	<path class="st0" d="M56.7,113.6l0.6,0.7l-0.8,1.5l-0.9-0.1l-0.5,0.8l4.1,0.2l0.4-0.8l-2.5-3.3L56.7,113.6z M58.6,116.1l-1.5-0.1
		l0.6-1.1L58.6,116.1z"/>
	<path class="st0" d="M7.9,103.1l-1.6,0l0-0.2c0-0.2,0-0.4,0.1-0.4c0-0.1,0.1-0.2,0.2-0.3c0.1-0.1,0.3-0.2,0.6-0.5l0.8-0.6l0-1.1
		l-0.7,0.5c-0.3,0.2-0.5,0.4-0.6,0.5c-0.1,0.1-0.2,0.3-0.3,0.5c0-0.4-0.1-0.7-0.3-0.9c-0.2-0.2-0.4-0.3-0.7-0.3
		c-0.2,0-0.4,0.1-0.6,0.2c-0.2,0.1-0.3,0.3-0.4,0.5c-0.1,0.2-0.1,0.6-0.1,1l0,1.9l3.7,0.1L7.9,103.1z M5.7,102.4l0,0.7l-0.9,0l0-0.7
		c0-0.4,0-0.6,0-0.6c0-0.1,0.1-0.3,0.2-0.3c0.1-0.1,0.2-0.1,0.3-0.1c0.1,0,0.2,0,0.3,0.1c0.1,0.1,0.1,0.1,0.2,0.3
		C5.7,101.7,5.8,102,5.7,102.4z"/>
	<polygon class="st0" points="10.7,114.7 8.5,115.7 9.9,113.1 9.5,112.3 6.2,113.8 6.5,114.6 8.8,113.5 7.3,116.2 7.7,117 11,115.4
			"/>

		<rect x="9.7" y="115.5" transform="matrix(-0.5376 -0.8432 0.8432 -0.5376 -83.4078 189.052)" class="st0" width="0.9" height="3.7"/>
	<polygon class="st0" points="56.7,119.6 54.2,117.7 53.7,118.4 56.2,120.3 55.4,121.3 55.9,121.7 58,118.9 57.5,118.5 	"/>

		<rect x="51.8" y="121" transform="matrix(-0.7374 -0.6754 0.6754 -0.7374 11.1832 247.1495)" class="st0" width="3.7" height="0.9"/>
	<polygon class="st0" points="47.2,124.4 48.3,126.5 45.6,125.2 44.8,125.7 46.7,128.9 47.4,128.5 46.2,126.3 48.9,127.6
		49.7,127.2 47.9,124 	"/>
	<polygon class="st0" points="6,111.4 9,110.5 8.8,109.7 5.8,110.5 5.4,109.3 4.8,109.4 5.8,112.8 6.4,112.6 	"/>
	<polygon class="st0" points="26.1,77.6 25.9,77 23.8,77.8 22.8,74.9 22,75.2 23.2,78.6 	"/>
	<path class="st0" d="M19.8,80.4l-0.1-0.9l1.5-0.8l0.7,0.6l0.8-0.5l-3.3-2.4l-0.8,0.5l0.3,4.1L19.8,80.4z M20.7,78.2l-1.1,0.6
		l-0.1-1.5L20.7,78.2z"/>
	<path class="st0" d="M11.4,101.9c0,0.9,0.1,1.9,0.2,2.8c4.2-3,8.5-5.9,12.8-8.8c1.4-1,2.9-1.9,4.3-2.9c0.7-0.5,0.9-0.2,1.2,0.3
		c0.8,1.6,1.5,3.2,2.3,4.8c1.1,2.3,2.1,4.7,3.1,7c0,0.1,0.1,0.2,0.1,0.3c0.1-0.1,0.2-0.2,0.2-0.3c1.2-2.4,2.3-4.8,3.5-7.2
		c2.4-4.7,4.8-9.4,7.4-14c-3.6-2.6-8.1-4.1-12.9-4.1C21.4,79.6,11.4,89.6,11.4,101.9z"/>
	<polygon class="st0" points="16.6,82.8 15.1,80.9 18,81.7 18.7,81.1 16.4,78.2 15.7,78.7 17.3,80.7 14.3,79.8 13.6,80.4 16,83.3
		"/>
	<path class="st0" d="M11.3,85.7c0.4,0.4,0.9,0.5,1.4,0.5c0.5-0.1,1-0.4,1.4-0.8c0.4-0.5,0.6-1,0.6-1.5c0-0.5-0.2-1-0.7-1.4
		c-0.5-0.4-0.9-0.6-1.5-0.5c-0.5,0.1-1,0.4-1.4,0.8c-0.2,0.3-0.4,0.5-0.5,0.8c-0.1,0.2-0.1,0.4-0.1,0.6c0,0.2,0,0.4,0.1,0.6
		C10.9,85.2,11.1,85.5,11.3,85.7z M11.7,83.2c0.2-0.3,0.5-0.4,0.8-0.5s0.6,0.1,0.9,0.4c0.3,0.3,0.5,0.6,0.5,0.9
		c0,0.3-0.1,0.6-0.3,0.9c-0.2,0.3-0.5,0.4-0.8,0.4c-0.3,0-0.6-0.1-1-0.4c-0.3-0.3-0.5-0.6-0.5-0.9C11.4,83.8,11.5,83.5,11.7,83.2z"
		/>
	<polygon class="st0" points="7.9,89.1 10.7,90.5 11.1,89.7 8.3,88.3 8.9,87.1 8.4,86.8 6.8,90 7.4,90.2 	"/>
	<rect x="8.8" y="86.3" transform="matrix(0.8353 0.5497 -0.5497 0.8353 49.457 8.4191)" class="st0" width="3.7" height="0.9"/>
	<path class="st0" d="M9,95l-0.7-0.6l0.6-1.7l0.9-0.1l0.3-0.9L6,92.1L5.7,93l3,2.8L9,95z M7.8,93.9l-1.1-1l1.5-0.1L7.8,93.9z"/>
	<path class="st0" d="M12,107c1.9,8.1,8.2,14.4,16.2,16.4c-3.9-5.3-8.3-11.4-9.3-13.1C17.2,107.5,15,106.6,12,107z"/>
	<path class="st0" d="M57.7,111.2c0.1-0.3,0.2-0.5,0.3-0.8c-0.1,0.1-0.1,0.3-0.2,0.4C57.7,111,57.7,111.1,57.7,111.2z"/>
	<path class="st0" d="M55.7,88.7c0.1,0.1,0.2,0.2,0.3,0.3c-0.2-0.2-0.3-0.5-0.5-0.7C55.5,88.4,55.6,88.5,55.7,88.7z"/>
	<path class="st0" d="M57.7,112c0.1,0.4,0.3,0.7,0.6,0.9l0.5-0.7c-0.2-0.2-0.4-0.3-0.4-0.5c-0.1-0.2-0.1-0.4,0-0.6
		c0.1-0.3,0.3-0.5,0.5-0.6c0.3-0.1,0.6-0.1,1,0.1c0.4,0.2,0.7,0.4,0.8,0.6c0.1,0.3,0.1,0.5,0,0.8c-0.1,0.2-0.2,0.4-0.4,0.5
		c-0.2,0.1-0.3,0.2-0.5,0.1l-0.1,0.9c0.3,0,0.6-0.1,0.8-0.2c0.4-0.2,0.6-0.6,0.8-1.1c0.2-0.6,0.2-1.1,0-1.6c-0.2-0.5-0.6-0.8-1.2-1
		c-0.6-0.2-1-0.2-1.5,0.1c-0.3,0.2-0.6,0.4-0.8,0.8c-0.1,0.3-0.2,0.5-0.3,0.8C57.6,111.5,57.6,111.8,57.7,112z"/>
	<path class="st0" d="M55.5,88.3c0.2,0.2,0.3,0.5,0.5,0.7c0.2,0.2,0.4,0.4,0.6,0.5c0.3,0.1,0.7,0.2,1.1,0l-0.3-0.8
		c-0.3,0.1-0.5,0.1-0.7,0c-0.2-0.1-0.4-0.2-0.5-0.4C56,88,56,87.8,56,87.5c0.1-0.3,0.3-0.5,0.7-0.8c0.4-0.2,0.7-0.3,1-0.3
		c0.3,0.1,0.5,0.2,0.7,0.5c0.1,0.2,0.2,0.4,0.2,0.6c0,0.2-0.1,0.4-0.2,0.5l0.6,0.6c0.2-0.2,0.3-0.5,0.3-0.8c0-0.4-0.1-0.9-0.4-1.3
		c-0.3-0.5-0.8-0.8-1.3-1c-0.5-0.1-1,0-1.5,0.3c-0.5,0.3-0.8,0.7-0.8,1.2C55.2,87.6,55.3,87.9,55.5,88.3z"/>
	<path class="st0" d="M49.6,122.6c0.3-0.2,0.5-0.4,0.8-0.7c-0.1,0.1-0.3,0.2-0.4,0.3C49.8,122.4,49.7,122.5,49.6,122.6z"/>
	<path class="st0" d="M55.9,70.7c-4.7,7.2-8.8,14.8-12.7,22.5c-2.5,4.9-5,9.7-7.3,14.7c-0.1,0.2-0.1,0.6-0.5,0.6
		c-0.1,0-0.2-0.3-0.3-0.4c-0.7-1.6-1.4-3.3-2.2-4.9c-1.2-2.7-2.4-5.3-3.6-7.9c-0.2-0.5-0.4-0.6-0.9-0.3c-1.2,0.9-2.4,1.7-3.7,2.5
		c-3.8,2.5-7.6,5.1-11.3,7.7c-0.2,0.1-0.6,0.1-0.5,0.4c0,0.1,0.4,0.1,0.7,0.1c2-0.1,3.7,0.7,5.1,2.2c1.5,1.7,11.5,15.7,15.1,20.9
		c0.1,0.1,0.2,0.2,0.3,0.4c0.2-0.2,0.3-0.3,0.4-0.5c0.2-0.7,0.5-1.4,0.7-2.1c2.1-5.7,4.3-11.3,6.4-17c1.9-5,3.7-9.9,5.5-14.9
		c2.3-6.2,4.7-12.4,7-18.6c0.7-1.7,1.3-3.5,2-5.2C56.2,70.7,55.9,70.6,55.9,70.7z"/>
	<path class="st0" d="M51.1,88.1c-2,5.2-4,10.4-5.9,15.7c-1.9,5-3.7,9.9-5.5,14.9c-0.6,1.7-1.3,3.4-1.9,5.1
		c10.3-1.9,18.2-11,18.2-21.9C55.9,96.7,54.1,91.9,51.1,88.1z"/>
	<path class="st0" d="M49.1,123.6c-0.1,0.5,0.1,1,0.5,1.5c0.4,0.5,0.8,0.7,1.4,0.7c0.5,0,1-0.2,1.5-0.6c0.3-0.2,0.5-0.5,0.6-0.7
		c0.1-0.2,0.2-0.4,0.2-0.6c0-0.2,0-0.4,0-0.7c-0.1-0.3-0.2-0.6-0.5-0.9c-0.4-0.5-0.8-0.7-1.3-0.7c-0.4,0-0.8,0.1-1.1,0.3
		c-0.3,0.2-0.5,0.5-0.8,0.7C49.3,122.9,49.1,123.3,49.1,123.6z M50.4,122.7c0.3-0.2,0.6-0.3,0.9-0.3c0.3,0,0.6,0.2,0.9,0.5
		c0.3,0.3,0.4,0.6,0.4,1c0,0.3-0.2,0.6-0.5,0.8c-0.3,0.2-0.6,0.3-0.9,0.3c-0.3,0-0.6-0.2-0.9-0.5c-0.3-0.3-0.4-0.7-0.4-1
		C49.9,123.2,50.1,123,50.4,122.7z"/>

		<rect x="59.5" y="102.3" transform="matrix(-0.999 -4.402862e-002 4.402862e-002 -0.999 118.1237 208.1306)" class="st0" width="3.7" height="0.9"/>
	<polygon class="st0" points="62.5,99.4 59.4,99.6 59.5,100.5 62.6,100.3 62.7,101.6 63.3,101.5 63.1,98.1 62.5,98.1 	"/>
	<path class="st0" d="M58.7,95.2l1.5-0.3l0,0.2c0,0.2,0.1,0.3,0.1,0.4c0,0.1,0,0.2-0.1,0.3c-0.1,0.1-0.2,0.3-0.4,0.6l-0.6,0.8l0.2,1
		l0.6-0.7c0.2-0.3,0.4-0.5,0.5-0.6c0.1-0.1,0.1-0.3,0.2-0.5c0.1,0.4,0.3,0.6,0.5,0.8c0.2,0.1,0.5,0.2,0.7,0.1c0.2,0,0.4-0.2,0.5-0.3
		c0.1-0.2,0.2-0.4,0.2-0.6c0-0.2,0-0.6-0.1-1l-0.4-1.8l-3.6,0.8L58.7,95.2z M61.7,94.5l0.2,0.7c0.1,0.4,0.1,0.6,0.1,0.6
		c0,0.1,0,0.3-0.1,0.4c-0.1,0.1-0.1,0.2-0.3,0.2c-0.1,0-0.2,0-0.3,0c-0.1,0-0.2-0.1-0.2-0.2c-0.1-0.1-0.1-0.4-0.2-0.8l-0.1-0.6
		L61.7,94.5z"/>
	<polygon class="st0" points="59.3,104.8 60.9,105 60.6,106.8 61.2,106.9 61.5,105.1 62.4,105.2 62.1,107.3 62.7,107.4 63.1,104.5
		59.4,103.9 	"/>
	<polygon class="st0" points="58.3,93.8 58.9,93.5 57.9,91.3 58.9,90.9 59.7,92.9 60.3,92.7 59.5,90.6 60.2,90.3 61.1,92.5
		61.7,92.2 60.4,89.2 57,90.7 	"/>

		<rect x="58.7" y="107.9" transform="matrix(-0.9711 -0.2386 0.2386 -0.9711 93.4786 228.063)" class="st0" width="3.7" height="0.9"/>
	<path d="M11.9,85c0.3,0.3,0.6,0.4,1,0.4c0.3,0,0.6-0.2,0.8-0.4c0.2-0.3,0.3-0.6,0.3-0.9c0-0.3-0.2-0.6-0.5-0.9
		c-0.3-0.3-0.6-0.4-0.9-0.4S12,83,11.7,83.2c-0.2,0.3-0.4,0.6-0.3,0.9C11.4,84.4,11.6,84.7,11.9,85z"/>
	<path d="M5.6,101.4c-0.1-0.1-0.2-0.1-0.3-0.1c-0.1,0-0.2,0-0.3,0.1c-0.1,0.1-0.1,0.2-0.2,0.3c0,0.1,0,0.3,0,0.6l0,0.7l0.9,0l0-0.7
		c0-0.4,0-0.7,0-0.8C5.7,101.5,5.6,101.4,5.6,101.4z"/>
	<polygon points="7.8,93.9 8.2,92.7 6.7,92.9 	"/>
	<polygon points="20.7,78.2 19.5,77.3 19.6,78.8 	"/>
	<path d="M61.2,96.2c0.1,0.1,0.1,0.2,0.2,0.2c0.1,0,0.2,0.1,0.3,0c0.1,0,0.2-0.1,0.3-0.2C62,96.1,62,96,62,95.9
		c0-0.1-0.1-0.3-0.1-0.6l-0.2-0.7l-0.9,0.2l0.1,0.6C61.1,95.8,61.1,96.1,61.2,96.2z"/>
	<path d="M57.8,69.1c3.1,2,5.9,4.6,8.3,7.4c5.9,6.8,9.4,15.7,9.4,25.5c0,13-6.3,24.4-16,31.6c-1.1,0.8-2.2,1.5-3.4,2.2l144,0.1
		l-36-67.7H57.7c0-0.4-0.1-0.8-0.1-1.2c0-0.2-0.2-0.4-0.3-0.6c-0.2,0.1-0.4,0.2-0.5,0.4c-0.4,0.6-0.8,1.2-1.2,1.7
		c-1.2,1.7-2.3,3.5-3.4,5.3c-5.3-3.5-11.8-5.6-18.6-5.6C15,68.1-0.1,83.2-0.1,101.9s15.1,33.8,33.8,33.8c18.7,0,33.8-15.1,33.8-33.8
		c0-10.3-4.6-19.5-11.9-25.7c0.5-1.4,1.1-2.8,1.6-4.1C57.6,71,57.7,70,57.8,69.1z M146.3,121.6c-0.8,2.3-1.8,3.9-3.1,4.9
		c-1.2,1-2.4,1.5-3.6,1.5c-2.3,0-4.2-1.6-5.7-4.7c-1.3-2.7-1.9-5.9-1.9-9.6c0-3.2,0.4-5.9,1.2-8.3c0.8-2.3,1.9-4,3.3-5.2
		c1.1-0.9,2.1-1.3,3.3-1.3c1.8,0,3.5,1.1,4.9,3.3c1.8,2.7,2.7,6.4,2.7,11C147.5,116.6,147.1,119.4,146.3,121.6z M159,99v23.7
		c0,1.6,0.3,2.5,0.4,2.9c0.1,0.4,0.2,0.7,0.6,0.9c0.4,0.2,1,0.3,2,0.4v1.1h-9v-1.1c1,0,2.1-0.1,2.4-0.3c0.3-0.2,0.4-0.5,0.5-0.8
		c0.1-0.3,0.1-1.3,0.1-3v-15.1c0-2,0.2-3.3,0.1-3.9c-0.1-0.4-0.1-0.8-0.3-1c-0.2-0.2-0.4-0.3-0.7-0.3c-0.4,0-1,0.2-1.8,0.6l-0.2-0.7
		l5.8-3.3H159z M131.7,77.3c2.5-1.7,6-2.6,10.5-2.6c4.6,0,8.2,0.8,10.7,2.5c2.5,1.7,3.7,4.1,3.7,7.1c0,2.2-0.5,4-1.6,5.5
		c-1.1,1.4-2.7,2.5-4.7,3.3c-2.1,0.8-4.6,1.2-7.7,1.2c-3.1,0-5.7-0.3-7.8-1c-2.1-0.7-3.7-1.8-5-3.2s-1.9-3.3-1.9-5.5
		C127.9,81.5,129.2,79,131.7,77.3z M126.8,102.3c1.8,2.7,2.7,6.4,2.7,11c0,3.3-0.4,6-1.2,8.3c-0.8,2.3-1.8,3.9-3.1,4.9
		c-1.2,1-2.4,1.5-3.6,1.5c-2.3,0-4.2-1.6-5.7-4.7c-1.3-2.7-1.9-5.9-1.9-9.6c0-3.2,0.4-5.9,1.2-8.3c0.8-2.3,1.9-4,3.3-5.2
		c1.1-0.9,2.1-1.3,3.3-1.3C123.7,99,125.3,100.1,126.8,102.3z M115.4,87.4c-0.6-0.4-2.1-0.8-4.4-1.1c-3.8-0.6-6.4-1.3-8-2.3
		c-1.6-1-2.4-2.2-2.4-3.7c0-1,0.4-1.9,1.2-2.8c0.8-0.9,2.1-1.5,3.7-2c1.7-0.5,3.9-0.7,6.8-0.7c3.5,0,6.2,0.5,8.1,1.4
		c1.9,0.9,3,2.3,3.3,4.3l-8.1,0.3c-0.2-0.9-0.7-1.5-1.4-1.9c-0.7-0.4-1.6-0.6-2.8-0.6c-1,0-1.7,0.1-2.3,0.4
		c-0.5,0.3-0.8,0.6-0.8,1.1c0,0.3,0.2,0.6,0.6,0.8c0.4,0.3,1.4,0.5,2.9,0.7c3.7,0.6,6.4,1.1,8.1,1.7c1.6,0.6,2.8,1.3,3.5,2.1
		c0.7,0.8,1.1,1.8,1.1,2.8c0,1.2-0.5,2.3-1.5,3.4c-1,1-2.4,1.8-4.1,2.3c-1.8,0.5-4,0.8-6.7,0.8c-4.7,0-8-0.6-9.8-1.9
		c-1.8-1.2-2.8-2.8-3.1-4.7l8.2-0.3c0.2,0.9,0.5,1.6,1.1,2.1c0.9,0.8,2.1,1.2,3.8,1.2c1.2,0,2.2-0.2,2.8-0.6c0.7-0.4,1-0.8,1-1.4
		C116.3,88.2,116,87.7,115.4,87.4z M95,117.6L106.4,99h1.6v18h3v3h-3v8h-3v-8H95V117.6z M86,75h8v19h-8V75z M86.8,99H87v23.7
		c0,1.6,0.2,2.5,0.4,2.9c0.1,0.4,0.2,0.7,0.6,0.9c0.4,0.2,1,0.3,2,0.4v1.1h-9v-1.1c1,0,2.1-0.1,2.4-0.3c0.3-0.2,0.4-0.5,0.6-0.8
		c0.1-0.3,0.1-1.3,0.1-3v-15.1c0-2,0.2-3.3,0.1-3.9c-0.1-0.4-0.1-0.8-0.3-1c-0.2-0.2-0.4-0.3-0.7-0.3c-0.4,0-1,0.2-1.8,0.6l-0.2-0.7
		L86.8,99z M46.5,83.8c-2.6,4.6-5,9.3-7.4,14c-1.2,2.4-2.3,4.8-3.5,7.2c-0.1,0.1-0.1,0.2-0.2,0.3c0-0.1-0.1-0.2-0.1-0.3
		c-1-2.3-2.1-4.7-3.1-7c-0.7-1.6-1.5-3.2-2.3-4.8c-0.3-0.5-0.5-0.8-1.2-0.3c-1.4,1-2.8,1.9-4.3,2.9c-4.3,2.9-8.6,5.8-12.8,8.8
		c-0.1-0.9-0.2-1.8-0.2-2.8c0-12.3,10-22.2,22.2-22.2C38.5,79.6,42.9,81.2,46.5,83.8z M22.8,74.9l1,2.9l2.1-0.7l0.2,0.6l-2.9,1
		L22,75.2L22.8,74.9z M19.5,76.3l3.3,2.4L22,79.2l-0.7-0.6l-1.5,0.8l0.1,0.9L19,80.9l-0.3-4.1L19.5,76.3z M14.3,79.8l3,0.8l-1.6-1.9
		l0.6-0.5l2.3,2.9L18,81.7l-2.9-0.8l1.5,1.9L16,83.3l-2.3-2.9L14.3,79.8z M10.7,83.6c0.1-0.3,0.3-0.5,0.5-0.8
		c0.4-0.5,0.9-0.8,1.4-0.8c0.5-0.1,1,0.1,1.5,0.5c0.5,0.4,0.7,0.8,0.7,1.4c0,0.5-0.2,1-0.6,1.5c-0.4,0.5-0.9,0.8-1.4,0.8
		c-0.5,0.1-1-0.1-1.4-0.5c-0.3-0.2-0.5-0.5-0.6-0.8c-0.1-0.2-0.1-0.4-0.1-0.6C10.6,84.1,10.7,83.8,10.7,83.6z M9.4,85.4l3.1,2
		L12,88.2l-3.1-2L9.4,85.4z M8.4,86.8l0.6,0.3l-0.6,1.2l2.8,1.4l-0.4,0.8l-2.8-1.4l-0.6,1.2L6.8,90L8.4,86.8z M6,92.1l4.1-0.5
		l-0.3,0.9l-0.9,0.1l-0.6,1.7L9,95l-0.3,0.9l-3-2.8L6,92.1z M4.5,98.2l2.8-1.3l-2.5-0.4l0.1-0.8l3.7,0.6l-0.2,0.9l-2.7,1.3l2.4,0.4
		L8,99.7l-3.7-0.6L4.5,98.2z M4.2,102.1c0-0.5,0-0.8,0.1-1c0.1-0.2,0.2-0.4,0.4-0.5c0.2-0.1,0.4-0.2,0.6-0.2c0.3,0,0.5,0.1,0.7,0.3
		c0.2,0.2,0.3,0.5,0.3,0.9c0.1-0.2,0.2-0.3,0.3-0.5c0.1-0.1,0.3-0.3,0.6-0.5l0.7-0.5l0,1.1l-0.8,0.6c-0.3,0.2-0.5,0.4-0.6,0.5
		c-0.1,0.1-0.1,0.2-0.2,0.3c0,0.1,0,0.2-0.1,0.4l0,0.2l1.6,0l0,0.9l-3.7-0.1L4.2,102.1z M4.2,105.2l0.6-0.1l0.3,2.4l0.8-0.1
		l-0.3-2.2l0.6-0.1l0.3,2.2l1-0.1l-0.3-2.4l0.6-0.1l0.4,3.3l-3.7,0.5L4.2,105.2z M4.8,109.4l0.6-0.2l0.4,1.3l3-0.8l0.2,0.9l-3,0.8
		l0.4,1.3l-0.6,0.2L4.8,109.4z M7.3,116.2l1.5-2.7l-2.3,1.1l-0.4-0.7l3.4-1.6l0.4,0.8l-1.4,2.6l2.2-1l0.4,0.7L7.7,117L7.3,116.2z
		 M8.8,118.8L8.3,118l3.1-2l0.5,0.7L8.8,118.8z M12,107c3-0.4,5.1,0.5,6.9,3.4c1,1.7,5.4,7.8,9.3,13.1C20.2,121.4,13.9,115.1,12,107
		z M48.9,127.6l-2.8-1.3l1.2,2.2l-0.7,0.4l-1.8-3.2l0.8-0.4l2.7,1.2l-1.2-2.1l0.7-0.4l1.8,3.2L48.9,127.6z M54.7,123l-2.7-2.5
		l0.6-0.7l2.7,2.5L54.7,123z M55.9,121.7l-0.5-0.4l0.8-1l-2.5-1.8l0.5-0.7l2.5,1.8l0.8-1l0.5,0.4L55.9,121.7z M59.2,116.9l-4.1-0.2
		l0.5-0.8l0.9,0.1l0.8-1.5l-0.6-0.7l0.5-0.8l2.5,3.3L59.2,116.9z M62.2,109.3l-3.6-0.9l0.2-0.9l3.6,0.9L62.2,109.3z M62.7,107.4
		l-0.6-0.1l0.3-2.1l-0.9-0.1l-0.3,1.8l-0.6-0.1l0.3-1.8l-1.6-0.2l0.1-0.9l3.7,0.5L62.7,107.4z M63.2,103.3l-3.7-0.2l0-0.9l3.7,0.2
		L63.2,103.3z M63.3,101.5l-0.6,0l-0.1-1.3l-3.1,0.2l-0.1-0.9l3.1-0.2l-0.1-1.3l0.6,0L63.3,101.5z M62.6,95.4c0.1,0.5,0.1,0.8,0.1,1
		c0,0.2-0.1,0.4-0.2,0.6c-0.1,0.2-0.3,0.3-0.5,0.3c-0.3,0.1-0.5,0-0.7-0.1c-0.2-0.1-0.4-0.4-0.5-0.8c0,0.2-0.1,0.4-0.2,0.5
		c-0.1,0.1-0.2,0.4-0.5,0.6l-0.6,0.7l-0.2-1l0.6-0.8c0.2-0.3,0.4-0.5,0.4-0.6c0.1-0.1,0.1-0.2,0.1-0.3c0-0.1,0-0.2-0.1-0.4l0-0.2
		l-1.5,0.3l-0.2-0.9l3.6-0.8L62.6,95.4z M61.7,92.2l-0.6,0.2l-0.9-2.2l-0.8,0.3l0.9,2l-0.6,0.2l-0.9-2l-0.9,0.4l1,2.3l-0.6,0.2
		L57,90.7l3.4-1.5L61.7,92.2z M56.1,85.9c0.5-0.3,1-0.5,1.5-0.3c0.5,0.1,0.9,0.4,1.3,1c0.3,0.4,0.4,0.9,0.4,1.3
		c0,0.3-0.1,0.5-0.3,0.8L58.3,88c0.1-0.2,0.2-0.3,0.2-0.5c0-0.2-0.1-0.4-0.2-0.6c-0.2-0.3-0.4-0.4-0.7-0.5c-0.3-0.1-0.6,0-1,0.3
		c-0.4,0.3-0.6,0.5-0.7,0.8c-0.1,0.3,0,0.5,0.2,0.8c0.1,0.2,0.3,0.3,0.5,0.4c0.2,0.1,0.4,0.1,0.7,0l0.3,0.8c-0.4,0.1-0.8,0.1-1.1,0
		c-0.2-0.1-0.4-0.3-0.6-0.5c4.1,6.4,4.5,14.3,2,21.5c0.2-0.3,0.4-0.6,0.8-0.8c0.4-0.2,0.9-0.3,1.5-0.1c0.6,0.2,1,0.6,1.2,1
		c0.2,0.5,0.2,1,0,1.6c-0.2,0.5-0.5,0.9-0.8,1.1c-0.2,0.1-0.5,0.2-0.8,0.2l0.1-0.9c0.2,0,0.4,0,0.5-0.1c0.2-0.1,0.3-0.3,0.4-0.5
		c0.1-0.3,0.1-0.6,0-0.8c-0.1-0.3-0.4-0.5-0.8-0.6c-0.4-0.2-0.8-0.2-1-0.1c-0.3,0.1-0.4,0.3-0.5,0.6c-0.1,0.2-0.1,0.4,0,0.6
		c0.1,0.2,0.2,0.4,0.4,0.5l-0.5,0.7c-0.3-0.3-0.5-0.6-0.6-0.9c-0.1-0.2,0-0.5,0-0.8c-1.1,2.9-2.7,5.7-4.8,8.2
		c-0.8,0.9-1.6,1.8-2.6,2.6c0.4-0.2,0.7-0.3,1.1-0.3c0.5,0,1,0.2,1.3,0.7c0.2,0.3,0.4,0.6,0.5,0.9c0,0.2,0,0.4,0,0.7
		c0,0.2-0.1,0.4-0.2,0.6c-0.1,0.3-0.4,0.5-0.6,0.7c-0.5,0.4-1,0.6-1.5,0.6c-0.5,0-1-0.3-1.4-0.7c-0.4-0.5-0.5-0.9-0.5-1.5
		c0.1-0.4,0.2-0.7,0.5-1c-3.4,2.7-7.7,4.6-12.3,5.2c4.6-0.6,8.9-2.5,12.3-5.2c0.1-0.1,0.2-0.3,0.4-0.4c0.1-0.1,0.3-0.2,0.4-0.3
		c0.9-0.8,1.8-1.6,2.6-2.6c2.1-2.5,3.7-5.2,4.8-8.2c0-0.1,0-0.3,0.1-0.4c0.1-0.2,0.1-0.3,0.2-0.4c2.5-7.1,2.1-15.1-2-21.5
		c-0.1-0.1-0.2-0.2-0.3-0.3c-0.1-0.1-0.2-0.3-0.2-0.4c-0.3-0.5-0.7-1-1.1-1.4c0.4,0.5,0.7,0.9,1.1,1.4c-0.2-0.4-0.2-0.7-0.2-1.1
		C55.4,86.7,55.6,86.3,56.1,85.9z M37.7,123.8c0.6-1.7,1.3-3.4,1.9-5.1c1.8-5,3.7-9.9,5.5-14.9c2-5.2,4-10.4,5.9-15.7
		c3,3.8,4.8,8.6,4.8,13.8C55.9,112.8,48.1,121.8,37.7,123.8z M54.1,76c-2.3,6.2-4.7,12.4-7,18.6c-1.9,4.9-3.7,9.9-5.5,14.9
		c-2.1,5.7-4.3,11.3-6.4,17c-0.3,0.7-0.5,1.4-0.7,2.1c-0.1,0.2-0.2,0.4-0.4,0.5c-0.1-0.1-0.2-0.2-0.3-0.4
		c-3.6-5.2-13.6-19.2-15.1-20.9c-1.4-1.5-3.1-2.2-5.1-2.2c-0.2,0-0.7,0-0.7-0.1c-0.1-0.3,0.3-0.3,0.5-0.4c3.7-2.7,7.5-5.2,11.3-7.7
		c1.2-0.8,2.5-1.6,3.7-2.5c0.5-0.4,0.7-0.3,0.9,0.3c1.2,2.7,2.4,5.3,3.6,7.9c0.7,1.6,1.4,3.3,2.2,4.9c0.1,0.2,0.2,0.4,0.3,0.4
		c0.4,0,0.4-0.4,0.5-0.6c2.3-5,4.8-9.8,7.3-14.7c3.9-7.7,8.1-15.2,12.7-22.5c0.1-0.1,0.3,0.1,0.2,0.2C55.5,72.6,54.8,74.3,54.1,76z"
		/>
	<polygon points="58.6,116.1 57.7,114.9 57.1,115.9 	"/>
	<path d="M51.1,125c0.3,0,0.6-0.1,0.9-0.3c0.3-0.2,0.4-0.5,0.5-0.8c0-0.3-0.1-0.6-0.4-1c-0.3-0.3-0.6-0.5-0.9-0.5
		c-0.3,0-0.6,0.1-0.9,0.3c-0.3,0.2-0.4,0.5-0.5,0.8c0,0.3,0.1,0.6,0.4,1C50.5,124.8,50.8,125,51.1,125z"/>
	<path d="M141.6,101.1c-0.5-0.5-1.1-0.7-1.7-0.7c-0.8,0-1.5,0.4-2.1,1.3c-0.8,1.1-1.4,2.9-1.7,5.4c-0.3,2.5-0.5,4.9-0.5,7.3
		c0,3.9,0.4,7,1.2,9.4c0.7,2.1,1.7,3.1,3,3.1c0.6,0,1.3-0.3,2-1c0.7-0.7,1.2-1.8,1.5-3.4c0.5-2.4,0.8-5.7,0.8-10
		c0-3.2-0.3-5.9-0.8-8C142.8,102.9,142.3,101.7,141.6,101.1z"/>
	<path d="M142.3,90c1.8,0,3.3-0.4,4.3-1.2c1-0.8,1.5-2.3,1.5-4.4c0-1.8-0.5-3.1-1.6-3.9c-1.1-0.8-2.5-1.2-4.3-1.2
		c-1.7,0-3.1,0.4-4.2,1.3c-1,0.8-1.6,2.2-1.6,4.2c0,1.9,0.5,3.3,1.6,4.1C139.1,89.6,140.5,90,142.3,90z"/>
	<path d="M119.7,101.7c-0.8,1.1-1.4,2.9-1.7,5.4c-0.3,2.5-0.5,4.9-0.5,7.3c0,3.9,0.4,7,1.2,9.4c0.7,2.1,1.7,3.1,3,3.1
		c0.6,0,1.3-0.3,2-1c0.7-0.7,1.2-1.8,1.5-3.4c0.5-2.4,0.8-5.7,0.8-10c0-3.2-0.3-5.9-0.8-8c-0.4-1.6-1-2.7-1.6-3.4
		c-0.5-0.5-1.1-0.7-1.7-0.7C121,100.4,120.3,100.8,119.7,101.7z"/>
	<polygon points="105,103.4 97.1,117 105,117 	"/>
</g>
</svg>
