<?xml version="1.0" encoding="utf-8"?>
<!-- Generator: Adobe Illustrator 19.1.0, SVG Export Plug-In . SVG Version: 6.00 Build 0)  -->
<svg version="1.1" id="Layer_1" xmlns="http://www.w3.org/2000/svg" xmlns:xlink="http://www.w3.org/1999/xlink" x="0px" y="0px"
	 viewBox="0 51 200 100" style="enable-background:new 0 51 200 100;" xml:space="preserve">
<g>
	<path d="M99.3,51.6c2.5,1.2,3.6,3.4,4.2,5.9c0.5,1.7-0.1,2.6-1.6,3.5c-1.7,0.9-3.4,1.9-4.9,3.1c-1.4,1.1-2.6,1-3.9,0
		c-2.1,2.6-3.7,5.5-4.6,8.6c-1.3,4.5-1.3,8.9,0.7,13.2c1.6,3.5,4.3,5.9,8.1,7c1.3,0.4,2.2,1.1,2.8,2.4c0.3,0.6,0.7,1.2,1.1,1.7
		c0.6,0.8,1.5,1.1,2.5,0.8c1.8-0.5,3.4-0.4,5.1,0.5c2,1,3,0.7,4.5-1.1c0.6-0.7,1.3-1.2,2.2-1.2c8.4-0.1,13.4-6.1,14.7-12.9
		c0.3-1.6,0.4-3.2,0.6-5.1c0.2,0.5,0.4,0.8,0.5,1.1c1.1,3.9,1.2,7.9,1,11.9c-0.4,7.2-1.9,14.2-4.6,20.9c-0.7,1.7-1.5,3.4-2.5,5
		c-2,3.4-5.2,4.8-8.9,5.2c-3,0.3-4.6-1.2-4.5-4.2c0.1-1.8,0.6-3.7,0.7-5.5c0.2-2,0.2-3.9,0.1-5.9c0-0.8-0.4-1.6-0.8-2.2
		c-0.7-1.1-1.9-1.3-2.8-0.3c-0.7,0.9-1.4,2-1.7,3.1c-1.1,4.5-0.3,8.9,1.4,13.2c0.2,0.4,0.4,0.8,0.6,1.3c0.8,1.8,0.4,2.8-1.5,3.4
		c-2.8,1-5.6,0.8-8.4,0.1c-3.4-0.9-5.9-3-8-5.8c-2.4-3.3-4-7.1-5.7-10.9c-0.4-0.9-0.8-1.8-1.2-2.7c-0.1,0-0.3,0.1-0.4,0.1
		c0.1,1,0,2,0.2,2.9c0.4,1.7,0.9,3.3,1.3,5c0.3,1.5-0.2,2.5-1.7,2.8c-4.3,0.8-8.5,0-11-4.1c-2.5-4.2-4.4-8.7-4.8-13.6
		c-0.1-1.7,0.1-3.4-0.1-5.1c-0.2-2.1-0.7-4.2-1.1-6.2c0-1.6,0-3.2,0-4.8c0.1-0.3,0.2-0.6,0.2-1c1-8.7,5.4-15.1,13.1-19.2
		c0.3-0.1,0.6-0.2,0.9-0.3c-0.2,0.4-0.5,0.7-0.8,0.9c-7.5,5.8-10.2,13.3-8.1,22.5c1.2,5.1,3.8,9.5,8.1,12.6c0.3,0.2,0.8,0.4,1.1,0.5
		c0.1-0.7-0.1-1.1-0.2-1.5c-0.3-1.9-0.8-3.8-0.9-5.7c0-3,0.3-5.9,0.4-8.9c0.2-6.6,2.4-12.3,7.4-16.8c1.1-1,2.2-1.9,3.4-2.8
		c-0.1-0.2-0.3-0.4-0.4-0.7c-2-3-1.7-5.9,0.9-8.4c1-0.9,2.2-1.5,3.3-2.2C96.9,51.6,98.1,51.6,99.3,51.6z M110.2,99.7
		c-2.5-0.3-5-0.7-7.5-1c0.2,1.5,1.4,2.5,3.4,2.8C108,101.8,109.5,101.2,110.2,99.7z"/>
	<path d="M74.3,150.4c-0.4-0.6-1.1-1.1-1.3-1.7c-1.6-4.7-3.2-9.5-4.7-14.2c-0.4-1.3,0.1-2,1.4-2.1c0.8,0,1.7,0.1,2.5,0
		c1.2-0.1,1.7,0.5,2,1.5c0.6,2.2,1.3,4.3,2.1,6.5c0.6-2,2.3-3.7,1.5-6.1c-0.4-1.2,0.2-1.9,1.5-1.9c0.8,0,1.7,0,2.5,0
		c1-0.1,1.6,0.4,1.9,1.4c0.6,2.2,1.4,4.4,2.1,6.8c0.6-1.5,1.1-2.8,1.6-4.1c0.4-1.1,0.8-2.1,1.2-3.2c0.4-0.9,1.1-1.1,1.9-0.8
		c0.8,0.3,1,1,0.7,1.8c-1.9,5-3.8,10-5.8,15c-0.2,0.5-0.8,0.8-1.2,1.1c-0.1,0-0.1,0-0.2,0c-0.8-0.3-1.2-0.9-1.4-1.7
		c-0.5-1.7-1.1-3.4-1.7-5.1c-0.4-1.2-0.8-2.3-1.3-3.8c-1.2,3.1-2.3,6-3.5,8.8c-0.3,0.7-0.9,1.2-1.3,1.7
		C74.6,150.4,74.5,150.4,74.3,150.4z"/>
	<path d="M99.1,150.4c-0.5-0.6-1.2-1-1.4-1.7c-1.7-4.8-3.2-9.6-4.8-14.4c-0.3-1,0.2-1.8,1.3-1.9c0.9-0.1,1.9,0,2.9,0
		c1-0.1,1.6,0.4,1.8,1.3c0.7,2.2,1.3,4.5,2.1,7c0.7-1.8,1.3-3.2,1.8-4.7c0.1-0.4-0.1-0.9-0.3-1.4c-0.4-1.6,0.1-2.2,1.7-2.3
		c0.9,0,1.8,0,2.6,0c0.8,0,1.3,0.4,1.5,1.1c0.6,1.9,1.2,3.8,1.8,5.6c0.1,0.4,0.3,0.8,0.5,1.3c0.9-2.4,1.8-4.7,2.7-7
		c0.2-0.5,0.8-1,1.3-1.1c1.2-0.2,1.8,0.8,1.2,2.2c-0.8,2.1-1.6,4.2-2.4,6.2c-1,2.6-2,5.3-3.1,7.9c-0.3,0.6-0.9,1.1-1.4,1.7
		c-0.1,0-0.3,0-0.4,0c-0.4-0.6-1-1.1-1.3-1.8c-1-2.8-2-5.7-3-8.8c-1.2,3.1-2.3,6-3.5,8.8c-0.3,0.7-1,1.2-1.5,1.7
		C99.3,150.4,99.2,150.4,99.1,150.4z"/>
	<path d="M132.9,63.2c-0.7,1.6-1.6,3.1-3,4.2c-1.9,1.5-3.3,1.3-5-0.5c-1.2-1.3-2.6-2.3-4.1-3.3c-1.3-0.9-1.9-1.7-1.4-3.2
		c0.8-2.5,2.1-4.5,4.8-5.2c3.5-0.9,7.2,1.6,8.3,5.4c0.1,0.2,0.2,0.5,0.3,0.7C132.9,62.1,132.9,62.6,132.9,63.2z"/>
	<path d="M123.9,135c0,1.4,0,2.7,0,4.1c1.4,0,2.8,0,4.2,0c1.2,0,1.8,0.5,1.7,1.3c-0.1,1.1-0.9,1.2-1.7,1.2c-1.4,0-2.8,0-4.3,0
		c0,2.2,0,4.3,0,6.4c0,1.9-0.2,2.1-2.1,2.1c-0.8,0-1.5,0-2.3,0c-1,0-1.4-0.5-1.4-1.4c0-5,0-10.1,0-15.1c0-0.8,0.4-1.2,1.2-1.2
		c3.8,0,7.7,0,11.5,0c0.8,0,1.3,0.5,1.3,1.3c0,0.8-0.5,1.3-1.4,1.4c-1.9,0-3.7,0-5.6,0C124.8,135,124.4,135,123.9,135z"/>
	<path d="M122.7,84.9c0,2.7-1,4.4-3,5.2c-1.6,0.6-2.9,0.3-3.8-1.2c-0.5-0.8-0.9-1.7-1.3-2.6c-0.4-0.8-0.6-1.8-1.2-2.5
		c-0.7-0.8-0.6-1.6-0.1-2.4c0.6-0.9,1.1-1.9,1.8-2.7c0.9-1.1,2.1-1.2,3.4-0.8C120.9,78.8,122.7,81.6,122.7,84.9z"/>
	<path d="M94.5,82.6c0-3,2.3-6,5.1-7c1.7-0.5,3.3-0.1,4,1.5c0.6,1.3,0.8,2.8,1.1,4.2c0.1,0.2-0.1,0.6-0.3,0.8
		c-0.9,1.1-1.8,2.2-2.6,3.2c-1.6,2-3,2.5-4.7,1.9C95.5,86.6,94.5,84.9,94.5,82.6z"/>
	<path d="M106.6,96.1c-0.5-1.2-1.8-1.8-3.2-2.2c-0.4-0.1-0.9-0.8-0.8-1.1c0.1-0.5,0.7-1.1,1.1-1.2c1.5-0.1,3-0.1,4.5,0
		c0.8,0.1,1.6,0.2,2.2,0.6c0.5,0.3,0.9,1,1.1,1.6c0,0.2-0.8,0.7-1.3,1C109,95.3,107.9,95.6,106.6,96.1z"/>
	<path d="M124.8,126.9c0-2,1.6-3.7,3.7-3.7c2,0,3.6,1.6,3.6,3.6c0,2-1.6,3.6-3.6,3.7C126.5,130.5,124.8,128.9,124.8,126.9z
		 M125.4,126.9c0,1.7,1.4,3.1,3.2,3.1c1.6,0,3.1-1.5,3-3.1c0-1.7-1.4-3.1-3.1-3.1C126.8,123.8,125.4,125.1,125.4,126.9z"/>
	<path d="M80.2,118.4c2,0,3.6,1.7,3.7,3.6c0,1.9-1.7,3.7-3.6,3.7c-2,0-3.7-1.7-3.7-3.7C76.5,120,78.2,118.4,80.2,118.4z M77.1,122
		c0,1.7,1.4,3.1,3.1,3.1c1.7,0,3.1-1.5,3-3.1c0-1.7-1.4-3.1-3.1-3.1C78.5,118.9,77.1,120.3,77.1,122z"/>
	<g>
		<path d="M81.3,122.6l0.5,0.1c-0.1,0.4-0.3,0.7-0.6,0.9c-0.3,0.2-0.6,0.3-1,0.3c-0.4,0-0.7-0.1-1-0.2c-0.3-0.2-0.4-0.4-0.6-0.7
			c-0.1-0.3-0.2-0.7-0.2-1c0-0.4,0.1-0.7,0.2-1c0.2-0.3,0.4-0.5,0.6-0.7s0.6-0.2,0.9-0.2c0.4,0,0.7,0.1,1,0.3
			c0.3,0.2,0.4,0.5,0.5,0.8l-0.5,0.1c-0.1-0.3-0.2-0.5-0.4-0.6c-0.2-0.1-0.4-0.2-0.6-0.2c-0.3,0-0.5,0.1-0.7,0.2
			c-0.2,0.1-0.3,0.3-0.4,0.6c-0.1,0.2-0.1,0.5-0.1,0.7c0,0.3,0,0.6,0.1,0.8c0.1,0.2,0.2,0.4,0.4,0.5c0.2,0.1,0.4,0.2,0.6,0.2
			c0.3,0,0.5-0.1,0.7-0.2C81.1,123.2,81.3,122.9,81.3,122.6z"/>
	</g>
	<g>
		<path d="M126.9,128.8V125h1.7c0.3,0,0.6,0,0.8,0.1s0.3,0.2,0.4,0.4s0.2,0.4,0.2,0.6c0,0.3-0.1,0.5-0.3,0.7s-0.4,0.3-0.8,0.4
			c0.1,0.1,0.2,0.1,0.3,0.2c0.1,0.1,0.3,0.3,0.4,0.5l0.7,1h-0.6L129,128c-0.1-0.2-0.3-0.4-0.4-0.5c-0.1-0.1-0.2-0.2-0.3-0.3
			c-0.1,0-0.2-0.1-0.2-0.1c-0.1,0-0.1,0-0.3,0h-0.6v1.7H126.9z M127.4,126.7h1.1c0.2,0,0.4,0,0.5-0.1c0.1,0,0.2-0.1,0.3-0.2
			c0.1-0.1,0.1-0.2,0.1-0.3c0-0.2-0.1-0.3-0.2-0.4c-0.1-0.1-0.3-0.2-0.6-0.2h-1.2L127.4,126.7L127.4,126.7z"/>
	</g>
</g>
</svg>
